<svg viewBox="0 0 512 512" xml:space="preserve" xmlns="http://www.w3.org/2000/svg" enable-background="new 0 0 512 512"><path d="M476.624 97.457H289.746v57.656h43.131c7.934 0 14.371 6.458 14.371 14.413.001 7.957-6.438 14.415-14.371 14.415h-43.131v28.831h43.131c7.934 0 14.371 6.458 14.371 14.408.001 7.96-6.438 14.417-14.371 14.417h-43.131v28.828h43.131c7.934 0 14.371 6.457 14.371 14.415.001 7.951-6.438 14.409-14.371 14.409h-43.131v28.832h43.131c7.934 0 14.371 6.458 14.371 14.417 0 7.956-6.438 14.412-14.371 14.412h-43.131v57.653h186.878c7.938 0 14.376-6.455 14.375-14.416V111.87c0-7.957-6.437-14.413-14.375-14.413zm-57.499 259.452h-28.75c-7.934 0-14.377-6.456-14.377-14.412 0-7.959 6.443-14.417 14.377-14.417h28.75c7.933 0 14.373 6.458 14.373 14.417 0 7.956-6.44 14.412-14.373 14.412zm0-57.661h-28.75c-7.934 0-14.377-6.458-14.377-14.409 0-7.958 6.443-14.415 14.377-14.415h28.75c7.933 0 14.373 6.457 14.373 14.415 0 7.951-6.44 14.409-14.373 14.409zm0-57.652h-28.75c-7.934 0-14.377-6.457-14.377-14.417 0-7.95 6.443-14.408 14.377-14.408h28.75c7.933 0 14.373 6.458 14.373 14.408 0 7.96-6.44 14.417-14.373 14.417zm0-57.657h-28.75c-7.934 0-14.377-6.458-14.377-14.415 0-7.955 6.443-14.413 14.377-14.413h28.75c7.933 0 14.373 6.458 14.373 14.413 0 7.958-6.44 14.415-14.373 14.415zM274.548 43.115c-3.282-2.738-7.681-3.922-11.819-3.053L32.731 83.3c-6.814 1.275-11.73 7.211-11.73 14.157v317.106c0 6.919 4.916 12.883 11.73 14.157l229.997 43.24c.862.17 1.754.259 2.646.259 3.334 0 6.582-1.152 9.172-3.318 3.309-2.734 5.199-6.828 5.199-11.099V54.219c0-4.298-1.891-8.364-5.197-11.104zm-57.21 281.389a14.309 14.309 0 0 1-9.466 3.578c-3.992 0-7.96-1.675-10.809-4.954l-41.799-47.891-36.659 47.277a14.31 14.31 0 0 1-11.354 5.565c-3.073 0-6.21-.98-8.857-3.025-6.236-4.898-7.388-13.953-2.499-20.241l40.078-51.657-39.532-45.317c-5.232-5.97-4.627-15.078 1.351-20.32 5.923-5.25 15.01-4.703 20.269 1.357l35.88 41.102 42.583-54.889c4.909-6.253 13.938-7.407 20.176-2.504 6.238 4.896 7.395 13.95 2.507 20.238l-45.978 59.271 45.46 52.088c5.229 5.97 4.627 15.08-1.351 20.322z" fill="#207245" class="fill-207245"></path></svg>
